<svg width="53" height="51" viewBox="0 0 53 51" fill="none" xmlns="http://www.w3.org/2000/svg">
<path fill-rule="evenodd" clip-rule="evenodd" d="M35.8484 18.5454C35.8484 21.0047 34.8472 23.3633 33.065 25.1022C31.2829 26.8412 28.8657 27.8182 26.3453 27.8182C23.825 27.8182 21.4078 26.8412 19.6257 25.1022C17.8435 23.3633 16.8423 21.0047 16.8423 18.5454C16.8423 16.0862 17.8435 13.7276 19.6257 11.9886C21.4078 10.2497 23.825 9.27271 26.3453 9.27271C28.8657 9.27271 31.2829 10.2497 33.065 11.9886C34.8472 13.7276 35.8484 16.0862 35.8484 18.5454ZM31.0969 18.5454C31.0969 19.7751 30.5963 20.9543 29.7052 21.8238C28.8141 22.6933 27.6055 23.1818 26.3453 23.1818C25.0852 23.1818 23.8766 22.6933 22.9855 21.8238C22.0944 20.9543 21.5938 19.7751 21.5938 18.5454C21.5938 17.3158 22.0944 16.1365 22.9855 15.267C23.8766 14.3975 25.0852 13.9091 26.3453 13.9091C27.6055 13.9091 28.8141 14.3975 29.7052 15.267C30.5963 16.1365 31.0969 17.3158 31.0969 18.5454Z" fill="white"/>
<path fill-rule="evenodd" clip-rule="evenodd" d="M26.3453 0C11.9126 0 0.211914 11.417 0.211914 25.5C0.211914 39.583 11.9126 51 26.3453 51C40.7781 51 52.4787 39.583 52.4787 25.5C52.4787 11.417 40.7781 0 26.3453 0ZM4.96344 25.5C4.96344 30.345 6.65736 34.8052 9.4964 38.3474C11.4902 35.7925 14.0624 33.722 17.012 32.2976C19.9616 30.8733 23.2087 30.1336 26.4997 30.1364C29.7482 30.1334 32.9545 30.8539 35.8744 32.2431C38.7942 33.6323 41.3506 35.6535 43.3487 38.1526C45.4071 35.5183 46.7931 32.4435 47.392 29.1826C47.9908 25.9218 47.7853 22.5687 46.7923 19.4008C45.7994 16.2329 44.0477 13.3412 41.682 10.9651C39.3164 8.58893 36.4049 6.79658 33.1884 5.73636C29.972 4.67614 26.543 4.37852 23.1852 4.86812C19.8275 5.35772 16.6375 6.62048 13.8791 8.5519C11.1208 10.4833 8.8735 13.0279 7.32312 15.975C5.77274 18.9222 4.96387 22.1872 4.96344 25.5ZM26.3453 46.3636C21.4369 46.3708 16.6766 44.7232 12.87 41.6995C14.4022 39.5592 16.4416 37.8117 18.8146 36.6057C21.1877 35.3997 23.8241 34.7709 26.4997 34.7727C29.142 34.7707 31.7466 35.3837 34.0973 36.561C36.4479 37.7383 38.4768 39.4459 40.0155 41.5418C36.1793 44.6637 31.3406 46.3705 26.3453 46.3636Z" fill="white"/>
</svg>
