<svg width="51" height="51" viewBox="0 0 51 51" fill="none" xmlns="http://www.w3.org/2000/svg">
<path fill-rule="evenodd" clip-rule="evenodd" d="M34.773 18.5455C34.773 21.0047 33.796 23.3633 32.0571 25.1023C30.3181 26.8412 27.9595 27.8182 25.5003 27.8182C23.041 27.8182 20.6824 26.8412 18.9435 25.1023C17.2045 23.3633 16.2275 21.0047 16.2275 18.5455C16.2275 16.0862 17.2045 13.7276 18.9435 11.9887C20.6824 10.2497 23.041 9.27274 25.5003 9.27274C27.9595 9.27274 30.3181 10.2497 32.0571 11.9887C33.796 13.7276 34.773 16.0862 34.773 18.5455ZM30.1366 18.5455C30.1366 19.7751 29.6482 20.9544 28.7787 21.8239C27.9092 22.6934 26.7299 23.1818 25.5003 23.1818C24.2706 23.1818 23.0913 22.6934 22.2219 21.8239C21.3524 20.9544 20.8639 19.7751 20.8639 18.5455C20.8639 17.3158 21.3524 16.1365 22.2219 15.2671C23.0913 14.3976 24.2706 13.9091 25.5003 13.9091C26.7299 13.9091 27.9092 14.3976 28.7787 15.2671C29.6482 16.1365 30.1366 17.3158 30.1366 18.5455Z" fill="white"/>
<path fill-rule="evenodd" clip-rule="evenodd" d="M25.5 0C11.417 0 0 11.417 0 25.5C0 39.583 11.417 51 25.5 51C39.583 51 51 39.583 51 25.5C51 11.417 39.583 0 25.5 0ZM4.63636 25.5C4.63636 30.345 6.28923 34.8052 9.05945 38.3474C11.0049 35.7925 13.5148 33.722 16.3929 32.2976C19.271 30.8733 22.4394 30.1336 25.6507 30.1364C28.8204 30.1334 31.949 30.8539 34.7981 32.2431C37.6471 33.6323 40.1416 35.6535 42.0912 38.1526C44.0998 35.5183 45.4522 32.4435 46.0365 29.1826C46.6208 25.9218 46.4203 22.5687 45.4514 19.4008C44.4826 16.2329 42.7733 13.3412 40.465 10.9651C38.1567 8.58893 35.3158 6.79658 32.1772 5.73636C29.0387 4.67614 25.6929 4.37852 22.4165 4.86812C19.1401 5.35772 16.0274 6.62048 13.336 8.5519C10.6445 10.4833 8.45165 13.0279 6.93885 15.975C5.42605 18.9222 4.63678 22.1872 4.63636 25.5ZM25.5 46.3636C20.7105 46.3708 16.0656 44.7232 12.3513 41.6995C13.8463 39.5592 15.8363 37.8117 18.1518 36.6057C20.4673 35.3997 23.0399 34.7709 25.6507 34.7727C28.2289 34.7707 30.7704 35.3837 33.0641 36.561C35.3578 37.7383 37.3375 39.4459 38.8388 41.5418C35.0956 44.6637 30.3742 46.3705 25.5 46.3636Z" fill="white"/>
</svg>
