<svg width="29" height="27" viewBox="0 0 29 27" fill="none" xmlns="http://www.w3.org/2000/svg">
<path fill-rule="evenodd" clip-rule="evenodd" d="M0.912879 0.913828C1.4955 0.328675 2.28526 0 3.10869 0C3.93213 0 4.72189 0.328675 5.30451 0.913828L15.6621 11.3295C16.244 11.9154 16.5709 12.7095 16.5709 13.5376C16.5709 14.3656 16.244 15.1598 15.6621 15.7457L5.30451 26.1614C4.71547 26.7133 3.93639 27.0138 3.13139 26.9995C2.32639 26.9852 1.55833 26.6573 0.989021 26.0848C0.419712 25.5123 0.0936049 24.7399 0.0794016 23.9304C0.0651984 23.1209 0.364008 22.3375 0.912879 21.7451L9.07054 13.5376L0.908736 5.33006C0.326843 4.74418 0 3.94999 0 3.12195C0 2.2939 0.326843 1.49971 0.908736 0.913828H0.912879ZM13.342 0.913828C13.9246 0.328675 14.7144 0 15.5378 0C16.3613 0 17.151 0.328675 17.7336 0.913828L28.0913 11.3295C28.6732 11.9154 29 12.7095 29 13.5376C29 14.3656 28.6732 15.1598 28.0913 15.7457L17.7336 26.1614C17.1446 26.7133 16.3655 27.0138 15.5605 26.9995C14.7555 26.9852 13.9875 26.6573 13.4182 26.0848C12.8489 25.5123 12.5227 24.7399 12.5085 23.9304C12.4943 23.1209 12.7931 22.3375 13.342 21.7451L21.4997 13.5376L13.3379 5.33006C12.756 4.74418 12.4291 3.94999 12.4291 3.12195C12.4291 2.2939 12.756 1.49971 13.3379 0.913828H13.342Z" fill="#3A3EAC"/>
</svg>
