<svg width="22" height="18" viewBox="0 0 22 18" fill="none" xmlns="http://www.w3.org/2000/svg">
<path fill-rule="evenodd" clip-rule="evenodd" d="M0.692529 0.609219C1.13451 0.219116 1.73365 0 2.35832 0C2.98299 0 3.58212 0.219116 4.02411 0.609219L11.8816 7.55299C12.323 7.94357 12.571 8.47303 12.571 9.02506C12.571 9.5771 12.323 10.1066 11.8816 10.4971L4.02411 17.4409C3.57725 17.8089 2.98622 18.0092 2.37553 17.9997C1.76485 17.9902 1.18218 17.7715 0.750292 17.3899C0.318402 17.0082 0.0710106 16.4933 0.0602357 15.9536C0.0494608 15.4139 0.276144 14.8916 0.692529 14.4968L6.8811 9.02506L0.689386 3.55338C0.24795 3.16279 0 2.63333 0 2.0813C0 1.52927 0.24795 0.999807 0.689386 0.609219H0.692529ZM10.1215 0.609219C10.5635 0.219116 11.1626 0 11.7873 0C12.412 0 13.0111 0.219116 13.4531 0.609219L21.3106 7.55299C21.7521 7.94357 22 8.47303 22 9.02506C22 9.5771 21.7521 10.1066 21.3106 10.4971L13.4531 17.4409C13.0063 17.8089 12.4152 18.0092 11.8045 17.9997C11.1938 17.9902 10.6112 17.7715 10.1793 17.3899C9.7474 17.0082 9.50001 16.4933 9.48924 15.9536C9.47846 15.4139 9.70515 14.8916 10.1215 14.4968L16.3101 9.02506L10.1184 3.55338C9.67695 3.16279 9.429 2.63333 9.429 2.0813C9.429 1.52927 9.67695 0.999807 10.1184 0.609219H10.1215Z" fill="#3A3EAC"/>
</svg>
