<svg width="23" height="18" viewBox="0 0 23 18" fill="none" xmlns="http://www.w3.org/2000/svg">
<path fill-rule="evenodd" clip-rule="evenodd" d="M1.14184 0.934295C1.58342 0.555837 2.18199 0.343262 2.80609 0.343262C3.43018 0.343262 4.02876 0.555837 4.47034 0.934295L12.3206 7.67078C12.7616 8.04971 13.0093 8.56337 13.0093 9.09892C13.0093 9.63447 12.7616 10.1481 12.3206 10.5271L4.47034 17.2635C4.02389 17.6205 3.43341 17.8149 2.82329 17.8056C2.21316 17.7964 1.63104 17.5843 1.19955 17.214C0.768059 16.8438 0.520896 16.3442 0.510131 15.8207C0.499366 15.2971 0.72584 14.7904 1.14184 14.4073L7.32468 9.09892L1.1387 3.79057C0.697672 3.41164 0.449951 2.89798 0.449951 2.36243C0.449951 1.82688 0.697672 1.31322 1.1387 0.934295H1.14184ZM10.5621 0.934295C11.0037 0.555837 11.6023 0.343262 12.2264 0.343262C12.8505 0.343262 13.449 0.555837 13.8906 0.934295L21.7408 7.67078C22.1819 8.04971 22.4296 8.56337 22.4296 9.09892C22.4296 9.63447 22.1819 10.1481 21.7408 10.5271L13.8906 17.2635C13.4442 17.6205 12.8537 17.8149 12.2436 17.8056C11.6334 17.7964 11.0513 17.5843 10.6198 17.214C10.1883 16.8438 9.94117 16.3442 9.9304 15.8207C9.91964 15.2971 10.1461 14.7904 10.5621 14.4073L16.7449 9.09892L10.559 3.79057C10.1179 3.41164 9.87022 2.89798 9.87022 2.36243C9.87022 1.82688 10.1179 1.31322 10.559 0.934295H10.5621Z" fill="#3A3EAC"/>
</svg>
