<svg width="49" height="52" viewBox="0 0 49 52" fill="none" xmlns="http://www.w3.org/2000/svg">
<path d="M19.2595 47.0476H29.7356C29.7356 49.7714 27.3785 52 24.4976 52C21.6166 52 19.2595 49.7714 19.2595 47.0476ZM48.0689 42.0952V44.5714H0.92627V42.0952L6.16434 37.1429V22.2857C6.16434 14.6095 11.4024 7.92381 19.2595 5.69524V4.95238C19.2595 2.22857 21.6166 0 24.4976 0C27.3785 0 29.7356 2.22857 29.7356 4.95238V5.69524C37.5928 7.92381 42.8308 14.6095 42.8308 22.2857V37.1429L48.0689 42.0952ZM37.5928 22.2857C37.5928 15.3524 31.8309 9.90476 24.4976 9.90476C17.1643 9.90476 11.4024 15.3524 11.4024 22.2857V39.619H37.5928V22.2857Z" fill="white"/>
</svg>
